<?xml version="1.0" encoding="UTF-8" standalone="no"?>
<svg
   xmlns:dc="http://purl.org/dc/elements/1.1/"
   xmlns:cc="http://creativecommons.org/ns#"
   xmlns:rdf="http://www.w3.org/1999/02/22-rdf-syntax-ns#"
   xmlns:svg="http://www.w3.org/2000/svg"
   xmlns="http://www.w3.org/2000/svg"
   xmlns:sodipodi="http://sodipodi.sourceforge.net/DTD/sodipodi-0.dtd"
   xmlns:inkscape="http://www.inkscape.org/namespaces/inkscape"
   width="50.013588mm"
   height="70.793114mm"
   viewBox="0 0 50.013588 70.793114"
   version="1.1"
   id="svg114"
   inkscape:version="1.0.2 (e86c8708, 2021-01-15)"
   sodipodi:docname="lasige_vertical_logo.svg">
  <defs
     id="defs108">
    <clipPath
       clipPathUnits="userSpaceOnUse"
       id="clipPath132">
      <path
         d="M 0,250.165 H 212.49 V 0 H 0 Z"
         id="path130" />
    </clipPath>
    <clipPath
       clipPathUnits="userSpaceOnUse"
       id="clipPath244">
      <path
         d="M 35.3592,225.42 H 177.131 V 84.9702 H 35.3592 Z"
         id="path242" />
    </clipPath>
    <linearGradient
       x1="0"
       y1="0"
       x2="1"
       y2="0"
       gradientUnits="userSpaceOnUse"
       gradientTransform="matrix(-141.77135,0,0,141.77135,177.13057,155.19493)"
       spreadMethod="pad"
       id="linearGradient262">
      <stop
         style="stop-opacity:1;stop-color:#ce0b10"
         offset="0"
         id="stop250" />
      <stop
         style="stop-opacity:1;stop-color:#e5007e"
         offset="0.141104"
         id="stop252" />
      <stop
         style="stop-opacity:1;stop-color:#f7a900"
         offset="0.361963"
         id="stop254" />
      <stop
         style="stop-opacity:1;stop-color:#65b22e"
         offset="0.564417"
         id="stop256" />
      <stop
         style="stop-opacity:1;stop-color:#47c0f0"
         offset="0.760736"
         id="stop258" />
      <stop
         style="stop-opacity:1;stop-color:#642482"
         offset="1"
         id="stop260" />
    </linearGradient>
    <clipPath
       clipPathUnits="userSpaceOnUse"
       id="clipPath284">
      <path
         d="M 35.3592,225.411 H 167.609 V 84.962 H 35.3592 Z"
         id="path282" />
    </clipPath>
    <linearGradient
       x1="0"
       y1="0"
       x2="1"
       y2="0"
       gradientUnits="userSpaceOnUse"
       gradientTransform="matrix(-132.25014,0,0,132.25014,167.60936,155.1866)"
       spreadMethod="pad"
       id="linearGradient302">
      <stop
         style="stop-opacity:1;stop-color:#ce0b10"
         offset="0"
         id="stop290" />
      <stop
         style="stop-opacity:1;stop-color:#e5007e"
         offset="0.141104"
         id="stop292" />
      <stop
         style="stop-opacity:1;stop-color:#f7a900"
         offset="0.361963"
         id="stop294" />
      <stop
         style="stop-opacity:1;stop-color:#65b22e"
         offset="0.564417"
         id="stop296" />
      <stop
         style="stop-opacity:1;stop-color:#47c0f0"
         offset="0.760736"
         id="stop298" />
      <stop
         style="stop-opacity:1;stop-color:#642482"
         offset="1"
         id="stop300" />
    </linearGradient>
    <clipPath
       clipPathUnits="userSpaceOnUse"
       id="clipPath324">
      <path
         d="M 35.3592,225.418 H 171.542 V 84.9606 H 35.3592 Z"
         id="path322" />
    </clipPath>
    <linearGradient
       x1="0"
       y1="0"
       x2="1"
       y2="0"
       gradientUnits="userSpaceOnUse"
       gradientTransform="matrix(-136.18303,0,0,136.18303,171.54225,155.18915)"
       spreadMethod="pad"
       id="linearGradient342">
      <stop
         style="stop-opacity:1;stop-color:#ce0b10"
         offset="0"
         id="stop330" />
      <stop
         style="stop-opacity:1;stop-color:#e5007e"
         offset="0.141104"
         id="stop332" />
      <stop
         style="stop-opacity:1;stop-color:#f7a900"
         offset="0.361963"
         id="stop334" />
      <stop
         style="stop-opacity:1;stop-color:#65b22e"
         offset="0.564417"
         id="stop336" />
      <stop
         style="stop-opacity:1;stop-color:#47c0f0"
         offset="0.760736"
         id="stop338" />
      <stop
         style="stop-opacity:1;stop-color:#642482"
         offset="1"
         id="stop340" />
    </linearGradient>
  </defs>
  <sodipodi:namedview
     id="base"
     pagecolor="#ffffff"
     bordercolor="#666666"
     borderopacity="1.0"
     inkscape:pageopacity="0.0"
     inkscape:pageshadow="2"
     inkscape:zoom="0.35"
     inkscape:cx="-16.914706"
     inkscape:cy="599.49655"
     inkscape:document-units="mm"
     inkscape:current-layer="layer1"
     inkscape:document-rotation="0"
     showgrid="false"
     fit-margin-top="0"
     fit-margin-left="0"
     fit-margin-right="0"
     fit-margin-bottom="0"
     inkscape:window-width="1252"
     inkscape:window-height="943"
     inkscape:window-x="411"
     inkscape:window-y="113"
     inkscape:window-maximized="0" />
  <metadata
     id="metadata111">
    <rdf:RDF>
      <cc:Work
         rdf:about="">
        <dc:format>image/svg+xml</dc:format>
        <dc:type
           rdf:resource="http://purl.org/dc/dcmitype/StillImage" />
        <dc:title></dc:title>
      </cc:Work>
    </rdf:RDF>
  </metadata>
  <g
     inkscape:label="Layer 1"
     inkscape:groupmode="layer"
     id="layer1"
     transform="translate(-110.30868,10.450129)">
    <g
       id="g128"
       clip-path="url(#clipPath132)"
       transform="matrix(0.35277777,0,0,-0.35277777,97.834743,69.072683)">
      <g
         id="g134"
         transform="translate(37.6953,55.2109)">
        <path
           d="m 0,0 c 0,-1.687 1.463,-3.348 3.179,-3.348 1.828,0 3.207,1.829 3.207,2.589 V 2.869 C 6.386,4.923 4.782,6.161 3.207,6.161 1.435,6.161 0,4.529 0,2.869 Z m 8.721,15.332 v -19.72 c 0,-0.422 -0.478,-0.844 -1.154,-0.844 -0.59,0 -1.068,0.422 -1.068,0.844 v 1.125 c -0.591,-1.154 -2.11,-2.194 -3.883,-2.194 -2.644,0 -4.95,2.616 -4.95,5.457 v 2.869 c 0,2.954 2.278,5.402 5.035,5.402 1.8,0 3.066,-1.042 3.685,-2.139 v 9.2 c 0,0.478 0.534,0.815 1.181,0.815 0.676,0 1.154,-0.337 1.154,-0.815"
           style="fill:#575756;fill-opacity:1;fill-rule:nonzero;stroke:none"
           id="path136" />
      </g>
      <g
         id="g138"
         transform="translate(58.4863,61.3716)">
        <path
           d="m 0,0 c -1.8,0 -3.573,-1.575 -3.573,-4.135 v -6.414 c 0,-0.422 -0.534,-0.844 -1.181,-0.844 -0.675,0 -1.154,0.422 -1.154,0.844 V 1.125 c 0,0.479 0.479,0.816 1.154,0.816 0.59,0 1.068,-0.337 1.068,-0.816 V -0.196 C -3.066,0.957 -1.745,2.11 0,2.11 h 0.956 c 0.479,0 0.9,-0.506 0.9,-1.069 C 1.856,0.478 1.435,0 0.956,0 Z"
           style="fill:#575756;fill-opacity:1;fill-rule:nonzero;stroke:none"
           id="path140" />
      </g>
      <g
         id="g142"
         transform="translate(67.4053,62.4971)">
        <path
           d="m 0,0 v -11.674 c 0,-0.422 -0.535,-0.844 -1.182,-0.844 -0.647,0 -1.153,0.422 -1.153,0.844 V 0 c 0,0.479 0.506,0.816 1.153,0.816 C -0.535,0.816 0,0.479 0,0 m 0.253,5.823 c 0,-0.703 -0.647,-1.35 -1.435,-1.35 -0.816,0 -1.463,0.647 -1.463,1.35 0,0.703 0.647,1.322 1.463,1.322 0.788,0 1.435,-0.619 1.435,-1.322"
           style="fill:#575756;fill-opacity:1;fill-rule:nonzero;stroke:none"
           id="path144" />
      </g>
      <g
         id="g146"
         transform="translate(72.3291,61.9058)">
        <path
           d="m 0,0 c -0.028,0.085 -0.112,0.31 -0.112,0.451 0,0.562 0.871,1.012 1.49,1.012 0.338,0 0.647,-0.14 0.76,-0.45 L 5.71,-8.551 9.227,0.901 c 0.14,0.337 0.337,0.562 0.759,0.562 0.535,0 1.519,-0.45 1.519,-1.012 0,-0.17 -0.056,-0.338 -0.112,-0.451 L 6.779,-11.674 c -0.14,-0.309 -0.618,-0.506 -1.069,-0.506 -0.506,0 -0.956,0.169 -1.097,0.506 z"
           style="fill:#575756;fill-opacity:1;fill-rule:nonzero;stroke:none"
           id="path148" />
      </g>
      <g
         id="g150"
         transform="translate(95.6797,57.5454)">
        <path
           d="m 0,0 c 0.984,0 1.238,0.169 1.238,0.901 0,1.659 -1.35,3.178 -3.207,3.178 -1.773,0 -3.235,-1.35 -3.235,-3.066 V 0 Z m 3.46,0.76 c 0,-2.25 -1.238,-2.335 -2.503,-2.335 h -6.161 v -0.843 c 0,-2.082 1.66,-3.404 3.995,-3.404 2.109,0 2.7,1.097 3.403,1.097 0.563,0 0.956,-0.647 0.956,-1.069 0,-0.732 -1.715,-1.998 -4.444,-1.998 -3.657,0 -6.245,2.195 -6.245,5.458 V 0.62 c 0,2.869 2.503,5.317 5.598,5.317 2.869,0 5.401,-2.167 5.401,-5.177"
           style="fill:#575756;fill-opacity:1;fill-rule:nonzero;stroke:none"
           id="path152" />
      </g>
      <g
         id="g154"
         transform="translate(106.8774,50.8228)">
        <path
           d="m 0,0 c 0,-0.422 -0.562,-0.844 -1.181,-0.844 -0.675,0 -1.153,0.422 -1.153,0.844 v 11.674 c 0,0.479 0.478,0.816 1.153,0.816 0.562,0 1.069,-0.337 1.069,-0.816 v -1.153 c 0.563,1.097 1.884,2.138 3.769,2.138 2.673,0 4.951,-2.448 4.951,-5.402 V 0 c 0,-0.562 -0.59,-0.844 -1.181,-0.844 -0.563,0 -1.154,0.282 -1.154,0.844 v 7.257 c 0,1.66 -1.462,3.292 -3.207,3.292 C 1.547,10.549 0,9.311 0,7.257 Z"
           style="fill:#575756;fill-opacity:1;fill-rule:nonzero;stroke:none"
           id="path156" />
      </g>
      <g
         id="g158"
         transform="translate(138.6968,58.0801)">
        <path
           d="M 0,0 C 0,1.66 -1.435,3.292 -3.207,3.292 -4.782,3.292 -6.386,2.054 -6.386,0 v -3.628 c 0,-0.76 1.379,-2.589 3.207,-2.589 1.716,0 3.179,1.66 3.179,3.348 z M -6.386,12.462 V 3.263 c 0.619,1.097 1.885,2.139 3.685,2.139 2.757,0 5.036,-2.448 5.036,-5.402 v -2.869 c 0,-2.841 -2.307,-5.457 -4.951,-5.457 -1.773,0 -3.292,1.04 -3.883,2.194 v -1.125 c 0,-0.422 -0.478,-0.844 -1.068,-0.844 -0.676,0 -1.154,0.422 -1.154,0.844 v 19.719 c 0,0.479 0.478,0.816 1.154,0.816 0.647,0 1.181,-0.337 1.181,-0.816"
           style="fill:#575756;fill-opacity:1;fill-rule:nonzero;stroke:none"
           id="path160" />
      </g>
      <g
         id="g162"
         transform="translate(145.3374,62.0469)">
        <path
           d="m 0,0 c -0.056,0.084 -0.112,0.197 -0.112,0.31 0,0.619 0.9,1.125 1.519,1.125 0.337,0 0.647,-0.141 0.759,-0.478 l 3.713,-9.79 3.348,9.79 c 0.141,0.337 0.422,0.478 0.731,0.478 0.563,0 1.52,-0.478 1.52,-1.154 C 11.478,0.197 11.45,0.084 11.393,0 L 7.118,-11.449 C 5.936,-14.6 4.558,-18.51 1.013,-18.51 c -0.619,0 -1.097,0.197 -1.097,1.041 0,0.534 0.168,1.012 0.675,1.012 1.632,0 3.488,2.026 4.079,5.064 z"
           style="fill:#575756;fill-opacity:1;fill-rule:nonzero;stroke:none"
           id="path164" />
      </g>
      <g
         id="g166"
         transform="translate(42.8999,32.5376)">
        <path
           d="m 0,0 c 0.984,0 1.238,0.169 1.238,0.9 0,1.66 -1.351,3.179 -3.207,3.179 -1.772,0 -3.236,-1.35 -3.236,-3.066 V 0 Z m 3.46,0.76 c 0,-2.251 -1.238,-2.335 -2.503,-2.335 h -6.162 v -0.844 c 0,-2.081 1.661,-3.404 3.995,-3.404 2.11,0 2.701,1.097 3.404,1.097 0.563,0 0.956,-0.647 0.956,-1.069 0,-0.731 -1.715,-1.997 -4.444,-1.997 -3.657,0 -6.245,2.194 -6.245,5.457 v 2.954 c 0,2.869 2.503,5.317 5.598,5.317 2.869,0 5.401,-2.166 5.401,-5.176"
           style="fill:#575756;fill-opacity:1;fill-rule:nonzero;stroke:none"
           id="path168" />
      </g>
      <g
         id="g170"
         transform="translate(50.9189,26.377)">
        <path
           d="m 0,0 3.629,5.345 -3.488,5.12 c -0.085,0.113 -0.169,0.281 -0.169,0.45 0,0.563 0.872,1.181 1.491,1.181 0.169,0 0.45,-0.084 0.619,-0.337 L 5.176,6.92 8.327,11.759 c 0.14,0.225 0.422,0.337 0.619,0.337 0.562,0 1.463,-0.618 1.463,-1.181 0,-0.141 -0.029,-0.281 -0.141,-0.45 L 6.724,5.345 10.38,0 c 0.085,-0.112 0.141,-0.281 0.141,-0.478 0,-0.506 -0.816,-1.153 -1.435,-1.153 -0.225,0 -0.506,0.112 -0.647,0.337 L 5.176,3.686 1.941,-1.294 C 1.8,-1.519 1.519,-1.631 1.294,-1.631 c -0.535,0 -1.435,0.619 -1.435,1.153 0,0.168 0.057,0.337 0.141,0.478"
           style="fill:#575756;fill-opacity:1;fill-rule:nonzero;stroke:none"
           id="path172" />
      </g>
      <g
         id="g174"
         transform="translate(65.8584,30.2026)">
        <path
           d="M 0,0 V 2.813 C 0,5.852 1.744,8.271 5.598,8.271 8.074,8.271 9.733,7.173 9.733,6.33 9.733,5.852 9.312,5.176 8.749,5.176 8.187,5.176 7.708,6.161 5.767,6.161 3.46,6.161 2.335,4.895 2.335,2.813 V 0 c 0,-2.082 1.097,-3.348 3.46,-3.348 2.026,0 2.448,1.013 3.066,1.013 0.619,0 1.041,-0.646 1.041,-1.125 0,-0.872 -1.744,-1.997 -4.276,-1.997 C 1.744,-5.457 0,-3.094 0,0"
           style="fill:#575756;fill-opacity:1;fill-rule:nonzero;stroke:none"
           id="path176" />
      </g>
      <g
         id="g178"
         transform="translate(87.7749,32.5376)">
        <path
           d="m 0,0 c 0.984,0 1.237,0.169 1.237,0.9 0,1.66 -1.35,3.179 -3.206,3.179 -1.773,0 -3.236,-1.35 -3.236,-3.066 V 0 Z m 3.46,0.76 c 0,-2.251 -1.238,-2.335 -2.504,-2.335 h -6.161 v -0.844 c 0,-2.081 1.66,-3.404 3.995,-3.404 2.11,0 2.701,1.097 3.404,1.097 0.563,0 0.956,-0.647 0.956,-1.069 0,-0.731 -1.715,-1.997 -4.444,-1.997 -3.657,0 -6.246,2.194 -6.246,5.457 v 2.954 c 0,2.869 2.504,5.317 5.599,5.317 2.869,0 5.401,-2.166 5.401,-5.176"
           style="fill:#575756;fill-opacity:1;fill-rule:nonzero;stroke:none"
           id="path180" />
      </g>
      <g
         id="g182"
         transform="translate(99.2261,45.5342)">
        <path
           d="m 0,0 v -19.72 c 0,-0.422 -0.535,-0.843 -1.182,-0.843 -0.675,0 -1.153,0.421 -1.153,0.843 V 0 c 0,0.479 0.478,0.816 1.153,0.816 C -0.535,0.816 0,0.479 0,0"
           style="fill:#575756;fill-opacity:1;fill-rule:nonzero;stroke:none"
           id="path184" />
      </g>
      <g
         id="g186"
         transform="translate(108.2007,45.5342)">
        <path
           d="m 0,0 v -19.72 c 0,-0.422 -0.535,-0.843 -1.182,-0.843 -0.674,0 -1.153,0.421 -1.153,0.843 V 0 c 0,0.479 0.479,0.816 1.153,0.816 C -0.535,0.816 0,0.479 0,0"
           style="fill:#575756;fill-opacity:1;fill-rule:nonzero;stroke:none"
           id="path188" />
      </g>
      <g
         id="g190"
         transform="translate(121.6201,32.5376)">
        <path
           d="m 0,0 c 0.984,0 1.238,0.169 1.238,0.9 0,1.66 -1.35,3.179 -3.207,3.179 -1.773,0 -3.235,-1.35 -3.235,-3.066 V 0 Z m 3.46,0.76 c 0,-2.251 -1.238,-2.335 -2.503,-2.335 h -6.161 v -0.844 c 0,-2.081 1.66,-3.404 3.995,-3.404 2.109,0 2.7,1.097 3.403,1.097 0.563,0 0.956,-0.647 0.956,-1.069 0,-0.731 -1.715,-1.997 -4.444,-1.997 -3.657,0 -6.245,2.194 -6.245,5.457 v 2.954 c 0,2.869 2.503,5.317 5.598,5.317 2.869,0 5.401,-2.166 5.401,-5.176"
           style="fill:#575756;fill-opacity:1;fill-rule:nonzero;stroke:none"
           id="path192" />
      </g>
      <g
         id="g194"
         transform="translate(132.8184,25.8145)">
        <path
           d="m 0,0 c 0,-0.422 -0.562,-0.844 -1.182,-0.844 -0.674,0 -1.153,0.422 -1.153,0.844 v 11.675 c 0,0.478 0.479,0.815 1.153,0.815 0.563,0 1.07,-0.337 1.07,-0.815 v -1.154 c 0.562,1.097 1.884,2.138 3.769,2.138 2.673,0 4.951,-2.448 4.951,-5.401 V 0 c 0,-0.562 -0.591,-0.844 -1.181,-0.844 -0.563,0 -1.154,0.282 -1.154,0.844 v 7.258 c 0,1.659 -1.462,3.291 -3.207,3.291 C 1.547,10.549 0,9.311 0,7.258 Z"
           style="fill:#575756;fill-opacity:1;fill-rule:nonzero;stroke:none"
           id="path196" />
      </g>
      <g
         id="g198"
         transform="translate(146.9702,30.2026)">
        <path
           d="M 0,0 V 2.813 C 0,5.852 1.744,8.271 5.598,8.271 8.074,8.271 9.733,7.173 9.733,6.33 9.733,5.852 9.312,5.176 8.749,5.176 8.186,5.176 7.708,6.161 5.767,6.161 3.46,6.161 2.334,4.895 2.334,2.813 V 0 c 0,-2.082 1.098,-3.348 3.461,-3.348 2.025,0 2.447,1.013 3.066,1.013 0.619,0 1.041,-0.646 1.041,-1.125 0,-0.872 -1.744,-1.997 -4.276,-1.997 C 1.744,-5.457 0,-3.094 0,0"
           style="fill:#575756;fill-opacity:1;fill-rule:nonzero;stroke:none"
           id="path200" />
      </g>
      <g
         id="g202"
         transform="translate(168.8862,32.5376)">
        <path
           d="m 0,0 c 0.984,0 1.238,0.169 1.238,0.9 0,1.66 -1.35,3.179 -3.207,3.179 -1.773,0 -3.235,-1.35 -3.235,-3.066 V 0 Z m 3.46,0.76 c 0,-2.251 -1.237,-2.335 -2.503,-2.335 h -6.161 v -0.844 c 0,-2.081 1.66,-3.404 3.995,-3.404 2.109,0 2.7,1.097 3.403,1.097 0.563,0 0.957,-0.647 0.957,-1.069 0,-0.731 -1.716,-1.997 -4.445,-1.997 -3.657,0 -6.245,2.194 -6.245,5.457 v 2.954 c 0,2.869 2.503,5.317 5.598,5.317 2.869,0 5.401,-2.166 5.401,-5.176"
           style="fill:#575756;fill-opacity:1;fill-rule:nonzero;stroke:none"
           id="path204" />
      </g>
      <g
         id="g206"
         transform="translate(100.6348,120.7573)">
        <path
           d="m 0,0 h 7.358 c 0.053,0.004 0.106,0.009 0.157,0.009 0.469,0 0.909,-0.119 1.292,-0.327 0.852,-0.457 1.432,-1.354 1.432,-2.387 0,-0.098 -0.006,-0.194 -0.017,-0.289 v -2.812 c 0,-1.494 -1.21,-2.706 -2.707,-2.706 -1.495,0 -2.705,1.212 -2.705,2.706 v 0.393 h -4.811 -0.004 l -10.183,0.009 c -1.496,0 -2.708,1.212 -2.708,2.707 0,1.495 1.212,2.706 2.708,2.706 L -0.005,0.001"
           style="fill:#575756;fill-opacity:1;fill-rule:nonzero;stroke:none"
           id="path208" />
      </g>
      <g
         id="g210"
         transform="translate(164.7803,115.3535)">
        <path
           d="M 0,0 C 1.496,0 2.708,1.211 2.708,2.707 2.708,4.202 1.496,5.413 0,5.413 L -17.72,5.404 c -1.496,0 -2.708,-1.211 -2.708,-2.707 0,-1.495 1.212,-2.706 2.708,-2.706 z"
           style="fill:#575756;fill-opacity:1;fill-rule:nonzero;stroke:none"
           id="path212" />
      </g>
      <g
         id="g214"
         transform="translate(46.1177,92.501)">
        <path
           d="M 0,0 C 1.497,0 2.713,1.217 2.713,2.715 V 46.89 c 0,1.498 -1.216,2.714 -2.713,2.714 -1.499,0 -2.714,-1.216 -2.714,-2.714 V 2.715 C -2.714,1.217 -1.499,0 0,0"
           style="fill:#575756;fill-opacity:1;fill-rule:nonzero;stroke:none"
           id="path216" />
      </g>
      <g
         id="g218"
         transform="translate(72.5469,174.0849)">
        <path
           d="m 0,0 h -4.522 c 0,0 -0.014,0 -0.022,0 h -17.253 c -1.365,0 -2.124,0.643 -2.248,1.889 v 39.222 c 0,1.499 -1.219,2.716 -2.718,2.716 -1.497,0 -2.712,-1.217 -2.712,-2.716 V -2.713 c 0,-1.498 1.215,-2.716 2.712,-2.716 H 0 c 1.499,0 2.714,1.218 2.714,2.716 C 2.714,-1.216 1.499,0 0,0"
           style="fill:#575756;fill-opacity:1;fill-rule:nonzero;stroke:none"
           id="path220" />
      </g>
      <g
         id="g222"
         transform="translate(161.6431,195.7886)">
        <path
           d="m 0,0 h -7.856 l -0.25,-0.006 h -4.949 c -4.619,0 -8.377,3.684 -8.377,8.214 0,4.528 3.758,8.212 8.377,8.212 H 1.643 c 1.504,0 2.729,1.202 2.729,2.677 0,1.451 -1.115,2.677 -2.435,2.677 h -14.992 c -7.629,0 -13.835,-6.086 -13.835,-13.566 0,-7.481 6.206,-13.565 13.835,-13.565 h 6.372 l 0.253,0.004 H 0 c 4.618,0 8.375,-3.684 8.375,-8.213 0,-4.53 -3.757,-8.213 -8.375,-8.213 h -11.734 c -1.503,0 -2.729,-1.2 -2.729,-2.677 0,-1.366 1.041,-2.506 2.423,-2.658 v -0.018 H 0 c 7.629,0 13.834,6.085 13.834,13.566 C 13.834,-6.086 7.629,0 0,0"
           style="fill:#575756;fill-opacity:1;fill-rule:nonzero;stroke:none"
           id="path224" />
      </g>
      <g
         id="g226"
         transform="translate(169.436,98.3203)">
        <path
           d="m 0,0 h -26.439 c -1.212,0.091 -1.877,0.758 -1.964,1.976 V 36.14 c 0.072,0.847 0.56,1.616 1.437,1.911 H 0 c 1.499,0 2.716,1.216 2.716,2.715 0,1.497 -1.217,2.713 -2.716,2.713 h -31.118 c -1.499,0 -2.714,-1.095 -2.714,-2.592 V 40.881 40.752 -2.723 c 0,-1.498 1.215,-2.714 2.714,-2.714 0.032,0 0.061,0.007 0.091,0.009 H 0 c 1.499,0 2.716,1.217 2.716,2.716 C 2.716,-1.216 1.499,0 0,0"
           style="fill:#575756;fill-opacity:1;fill-rule:nonzero;stroke:none"
           id="path228" />
      </g>
      <g
         id="g230"
         transform="translate(105.207,216.2822)">
        <path
           d="M 0,0 C -0.357,0.817 -1.084,1.393 -1.932,1.571 -1.94,1.572 -1.948,1.573 -1.954,1.575 -2.032,1.59 -2.11,1.602 -2.188,1.611 -2.205,1.612 -2.221,1.615 -2.238,1.616 -2.321,1.624 -2.408,1.629 -2.491,1.629 H -2.497 -2.5 C -2.584,1.629 -2.667,1.624 -2.752,1.616 -2.769,1.615 -2.787,1.612 -2.802,1.611 -2.88,1.602 -2.958,1.59 -3.036,1.575 -3.043,1.573 -3.051,1.572 -3.057,1.571 -3.906,1.393 -4.633,0.817 -4.991,0 l -19.434,-44.158 c -0.294,-0.665 -0.31,-1.405 -0.046,-2.083 0.264,-0.678 0.776,-1.213 1.442,-1.505 0.347,-0.154 0.717,-0.232 1.092,-0.232 1.083,0 2.065,0.641 2.499,1.629 l 15.763,35.863 c 0.18,0.366 0.515,0.623 0.906,0.705 0.004,0 0.007,0 0.01,0.001 0.037,0.009 0.075,0.014 0.113,0.018 0.008,0.001 0.015,0.002 0.023,0.002 0.04,0.005 0.082,0.008 0.121,0.008 l 0.002,-10e-4 0.002,10e-4 c 0.041,0 0.083,-0.003 0.123,-0.008 0.009,0 0.018,-10e-4 0.024,-0.002 0.039,-0.004 0.077,-0.009 0.113,-0.018 0.003,-0.001 0.007,-0.001 0.011,-0.001 0.354,-0.075 0.667,-0.294 0.855,-0.61 l 15.789,-35.956 c 0.433,-0.987 1.413,-1.627 2.497,-1.627 0.376,0 0.745,0.077 1.091,0.23 0.667,0.293 1.179,0.827 1.443,1.506 0.264,0.678 0.081,1.837 -0.211,2.501 z"
           style="fill:#575756;fill-opacity:1;fill-rule:nonzero;stroke:none"
           id="path232" />
      </g>
      <g
         id="g234"
         transform="translate(107.9473,109.144)">
        <path
           d="m 0,0 c -1.498,0 -2.715,-1.214 -2.715,-2.708 v -0.371 l -0.009,0.027 v -5.522 c 0,-1.364 -0.642,-2.124 -1.889,-2.249 h -11.324 c -10.326,0.237 -18.657,8.672 -18.657,19.03 0,10.49 8.568,19.025 19.096,19.025 h 0.234 6.813 c 1.497,0 2.714,1.213 2.714,2.707 0,1.494 -1.217,2.708 -2.714,2.708 h -6.813 -0.234 -0.009 l -0.012,-10e-4 C -29.032,32.634 -40.022,21.675 -40.022,8.207 c 0,-12.915 10.086,-23.497 22.811,-24.38 0.186,-0.041 0.378,-0.066 0.575,-0.066 h 0.699 c 0.149,-10e-4 0.293,-0.021 0.439,-0.021 0.362,0 0.743,0.007 1.11,0.021 h 14.382 c 1.498,0 2.715,1.214 2.715,2.708 0,0.067 -0.014,0.13 -0.019,0.195 0.007,0.084 0.025,0.165 0.025,0.251 V -2.708 C 2.715,-1.214 1.497,0 0,0"
           style="fill:#575756;fill-opacity:1;fill-rule:nonzero;stroke:none"
           id="path236" />
      </g>
      <g
         id="g238">
        <g
           id="g240" />
        <g
           id="g276">
          <g
             clip-path="url(#clipPath244)"
             opacity="0.300003"
             id="g274">
            <g
               id="g272">
              <g
                 id="g270">
                <g
                   id="g268">
                  <g
                     id="g266">
                    <path
                       d="m 148.952,163.187 c 0,1.338 1.084,2.423 2.421,2.423 h -13.202 c -1.338,0 -2.421,-1.085 -2.421,-2.423 0,-1.337 1.083,-2.422 2.421,-2.422 h 13.202 c -1.337,0 -2.421,1.085 -2.421,2.422 m -34.7,-0.377 c 0.563,-1.222 1.161,-2.044 2.365,-2.044 h 10.039 c 1.317,0 2.391,1.065 2.391,2.381 0,1.326 -1.074,2.392 -2.391,2.392 h -8.385 l -3.482,7.925 c 0.468,-1.187 -0.086,-2.538 -1.265,-3.058 -0.311,-0.138 -0.64,-0.199 -0.961,-0.199 -0.918,0 -1.781,0.529 -2.171,1.43 z M 72.295,136.125 c -0.472,-0.508 -1.113,-0.768 -1.757,-0.768 -0.582,0 -1.164,0.21 -1.625,0.636 -0.97,0.898 -1.028,2.412 -0.13,3.382 l -0.003,0.007 c -2.753,-2.973 -4.92,-6.449 -6.388,-10.281 -0.471,-1.235 0.145,-2.619 1.38,-3.091 0.281,-0.108 0.569,-0.158 0.855,-0.158 0.964,0 1.87,0.585 2.234,1.538 1.256,3.28 3.116,6.242 5.434,8.735 m -34.542,3.324 c 1.322,0 2.393,1.072 2.393,2.394 v 3.022 h -0.081 c -1.321,0 -2.393,1.072 -2.393,2.393 0,1.323 1.072,2.394 2.393,2.394 h -2.116 c -0.065,0.005 -0.131,0.01 -0.196,0.01 -1.322,0 -2.394,-1.072 -2.394,-2.393 v -5.426 c 0,-1.322 1.072,-2.394 2.394,-2.394 m 0,-23.406 c 1.322,0 2.393,-1.07 2.393,-2.392 v 12.119 c 0,1.321 -1.071,2.392 -2.393,2.392 -1.322,0 -2.394,-1.071 -2.394,-2.392 v -12.119 c 0,1.322 1.072,2.392 2.394,2.392 M 174.749,89.731 h -9.515 c 1.316,0 2.382,-1.064 2.382,-2.379 0,-1.316 -1.066,-2.382 -2.382,-2.382 h 9.515 c 1.316,0 2.381,1.066 2.381,2.382 0,1.315 -1.065,2.379 -2.381,2.379 m -44.008,8.287 c -1.315,0 -2.381,1.066 -2.381,2.381 v -8.165 c 0,-1.315 1.066,-2.381 2.381,-2.381 1.317,0 2.381,1.066 2.381,2.381 v 8.165 c 0,-1.315 -1.064,-2.381 -2.381,-2.381 m -22.228,-8.23 h -7.55 c 1.322,0 2.392,-1.073 2.392,-2.393 0,-1.323 -1.07,-2.394 -2.392,-2.394 h 7.55 c 1.322,0 2.394,1.071 2.394,2.394 0,1.32 -1.072,2.393 -2.394,2.393 m 58.072,133.251 c 0,-1.316 -1.066,-2.383 -2.383,-2.383 h 5.103 v -6.095 c 0,-1.315 1.067,-2.381 2.381,-2.381 1.317,0 2.38,1.066 2.38,2.381 v 8.477 10e-4 c 0,0.073 -0.002,0.145 -0.009,0.216 -10e-4,0.01 -10e-4,0.018 -10e-4,0.027 -0.003,0.023 -0.007,0.045 -0.01,0.068 -0.154,1.168 -1.15,2.069 -2.36,2.069 h -7.484 c 1.317,0 2.383,-1.066 2.383,-2.38 m -11.68,-75.776 c 0,-1.317 -1.066,-2.381 -2.382,-2.381 h 10.514 c 1.317,0 2.383,1.064 2.383,2.381 0,1.315 -1.066,2.381 -2.383,2.381 h -10.514 c 1.316,0 2.382,-1.066 2.382,-2.381 m -65.013,64.045 -2.228,-5.042 c -0.526,-1.205 0.024,-2.609 1.232,-3.135 0.313,-0.134 0.64,-0.2 0.958,-0.197 0.917,0.002 1.787,0.535 2.176,1.431 l 2.052,4.705 c -0.442,-0.691 -1.204,-1.092 -1.998,-1.096 -0.32,0 -0.646,0.063 -0.958,0.199 -1.206,0.526 -1.758,1.929 -1.234,3.135 M 37.748,194.964 c -1.317,0 -2.382,1.068 -2.382,2.382 v -11.065 c 0,-1.315 1.065,-2.383 2.382,-2.383 1.315,0 2.382,1.068 2.382,2.383 v 11.065 c 0,-1.314 -1.067,-2.382 -2.382,-2.382 m 91.27,1.271 c 1.06,-2.694 2.675,-5.167 4.784,-7.276 l 1.37,-1.371 c 0.468,-0.467 1.08,-0.701 1.692,-0.701 0.613,0 1.227,0.234 1.694,0.701 0.933,0.935 0.933,2.451 0,3.385 l -1.372,1.37 c -1.626,1.627 -2.872,3.532 -3.696,5.608 0.445,-1.217 -0.157,-2.574 -1.371,-3.049 -0.286,-0.113 -0.582,-0.167 -0.874,-0.167 -0.955,0 -1.859,0.577 -2.229,1.519 z m -53.57,-33.069 c 0,-1.316 -1.066,-2.383 -2.383,-2.383 h -6.271 c 1.316,0 2.383,1.067 2.383,2.383 0,1.314 -1.067,2.381 -2.383,2.381 h 6.271 c 1.317,0 2.383,-1.067 2.383,-2.381"
                       style="fill:url(#linearGradient262);stroke:none"
                       id="path264" />
                  </g>
                </g>
              </g>
            </g>
          </g>
        </g>
      </g>
      <g
         id="g278">
        <g
           id="g280" />
        <g
           id="g316">
          <g
             clip-path="url(#clipPath284)"
             opacity="0.600006"
             id="g314">
            <g
               id="g312">
              <g
                 id="g310">
                <g
                   id="g308">
                  <g
                     id="g306">
                    <path
                       d="m 158.776,163.205 c 0,1.281 0.996,2.335 2.263,2.405 h -9.665 c -1.338,0 -2.42,-1.081 -2.42,-2.42 0,-1.337 1.082,-2.419 2.42,-2.419 h 9.822 c -1.339,0 -2.42,1.096 -2.42,2.434 m -45.243,7.202 c -0.312,-0.138 -0.641,-0.199 -0.962,-0.199 -0.918,0 -1.793,0.528 -2.183,1.429 l -1.386,3.135 -1.906,4.328 10e-4,-0.002 0.032,-0.074 c 0.398,-0.9 1.332,-1.41 2.25,-1.41 0.321,0 0.65,0.061 0.962,0.199 0.338,0.147 0.615,0.364 0.84,0.633 0.069,0.069 0.121,0.147 0.173,0.225 0.381,0.609 0.475,1.383 0.213,2.105 -10e-4,0.003 0,0.005 -10e-4,0.008 l 2.426,-5.474 0.805,-1.845 c 0.468,-1.187 -0.087,-2.538 -1.264,-3.058 m 19.93,27.589 c -1.277,3.254 -1.472,6.744 -0.682,10.005 -0.011,-0.048 -0.025,-0.096 -0.038,-0.145 -0.256,-1.106 -1.239,-1.854 -2.328,-1.854 -0.18,0 -0.36,0.02 -0.542,0.062 -1.26,0.291 -2.054,1.529 -1.806,2.789 -0.942,-4.119 -0.668,-8.509 0.944,-12.608 0.369,-0.943 1.272,-1.518 2.226,-1.518 0.291,0 0.589,0.054 0.876,0.166 1.229,0.483 1.835,1.872 1.35,3.103 m -2.727,-92.733 c -1.317,0 -2.383,1.066 -2.383,2.382 v -7.254 c 0,-1.316 1.066,-2.382 2.383,-2.382 1.316,0 2.381,1.066 2.381,2.382 v 7.254 c 0,-1.316 -1.065,-2.382 -2.381,-2.382 m 34.492,-15.539 h -11.993 c 1.315,0 2.382,-1.066 2.382,-2.381 0,-1.316 -1.067,-2.381 -2.382,-2.381 h 11.993 c 1.315,0 2.381,1.065 2.381,2.381 0,1.315 -1.066,2.381 -2.381,2.381 m -10.33,57.529 c 0,1.316 -1.066,2.382 -2.381,2.382 H 139.07 c 1.315,0 2.38,-1.066 2.38,-2.382 0,-1.315 -1.065,-2.379 -2.38,-2.379 h 13.447 c 1.315,0 2.381,1.064 2.381,2.379 m -60.823,61.809 c 0.068,0.105 0.128,0.216 0.179,0.335 l 2.673,6.169 c -0.027,-0.052 -0.054,-0.104 -0.084,-0.155 0,-0.003 -0.002,-0.004 -0.005,-0.007 -0.429,-0.733 -1.132,-1.162 -1.95,-1.165 -0.329,-0.002 -0.66,0.065 -0.98,0.206 -1.144,0.509 -1.713,1.806 -1.36,2.995 l -2.662,-6.141 c -0.524,-1.206 0.028,-2.608 1.233,-3.135 0.312,-0.136 0.638,-0.199 0.96,-0.199 0.792,0.004 1.554,0.406 1.996,1.097 m 6.881,-119.283 h -9.002 c -0.779,0 -1.558,0.034 -2.329,0.1 0.025,-0.003 0.051,-0.006 0.079,-0.008 1.318,-0.108 2.297,-1.264 2.19,-2.581 -0.103,-1.25 -1.148,-2.197 -2.383,-2.197 -0.049,0 -0.097,0.002 -0.147,0.005 0.86,-0.069 1.722,-0.105 2.59,-0.105 h 9.002 c 1.322,0 2.394,1.07 2.394,2.393 0,1.321 -1.072,2.393 -2.394,2.393 m -60.884,55.095 h 3.806 c -1.323,0 -2.394,1.072 -2.394,2.392 0,1.323 1.071,2.394 2.394,2.394 h -3.806 c -1.322,0 -2.394,-1.071 -2.394,-2.394 0,-1.32 1.072,-2.392 2.394,-2.392 m 119.206,78.132 c 0,-1.207 -0.898,-2.202 -2.061,-2.358 h 6.981 c 1.314,0 2.38,1.065 2.38,2.383 0,1.313 -1.066,2.38 -2.38,2.38 h -7.294 -0.008 c 1.316,0 2.382,-1.09 2.382,-2.405 M 37.741,208.164 c -1.316,0 -2.382,1.067 -2.382,2.382 v -13.208 c 0,-1.315 1.066,-2.381 2.382,-2.381 1.315,0 2.381,1.066 2.381,2.381 v 13.208 c 0,-1.315 -1.066,-2.382 -2.381,-2.382 m 29.048,-42.625 h -7.254 c 1.317,0 2.383,-1.066 2.383,-2.383 0,-1.315 -1.066,-2.381 -2.383,-2.381 h 7.254 c 1.315,0 2.381,1.066 2.381,2.381 0,1.317 -1.066,2.383 -2.381,2.383 m -29.03,-62.276 c 1.32,0 2.393,-1.072 2.393,-2.393 v 12.79 c 0,1.321 -1.073,2.393 -2.393,2.393 -1.321,0 -2.393,-1.072 -2.393,-2.393 v -12.79 c 0,1.321 1.072,2.393 2.393,2.393 m 45.454,40.181 c 0.244,0 0.49,0.037 0.733,0.116 -4.419,-1.423 -8.455,-3.979 -11.657,-7.443 -0.471,-0.51 -1.114,-0.768 -1.758,-0.768 -0.581,0 -1.163,0.21 -1.625,0.635 -0.968,0.898 -1.029,2.412 -0.132,3.381 2.964,3.207 6.48,5.731 10.449,7.505 1.028,0.459 2.072,0.862 3.133,1.207 l 0.128,0.039 c -1.26,-0.402 -1.952,-1.749 -1.547,-3.009 0.325,-1.015 1.265,-1.663 2.276,-1.663"
                       style="fill:url(#linearGradient302);stroke:none"
                       id="path304" />
                  </g>
                </g>
              </g>
            </g>
          </g>
        </g>
      </g>
      <g
         id="g318">
        <g
           id="g320" />
        <g
           id="g356">
          <g
             clip-path="url(#clipPath324)"
             opacity="0.899994"
             id="g354">
            <g
               id="g352">
              <g
                 id="g350">
                <g
                   id="g348">
                  <g
                     id="g346">
                    <path
                       d="m 169.977,162.28 c 0.014,0 0.042,0.014 0.07,0.014 -2.476,-0.996 -5.181,-1.537 -8,-1.537 h -0.839 c -1.338,0 -2.42,1.082 -2.42,2.42 0,1.281 0.996,2.349 2.263,2.42 0.178,0.001 0.121,0.001 0.178,0.001 l 1.644,0.013 c 1.922,0.1 3.744,0.527 5.423,1.196 0.271,0.1 0.527,0.157 0.827,0.157 0.953,0 1.779,-0.555 2.163,-1.353 0.171,-0.327 0.256,-0.683 0.256,-1.067 0,-1.04 -0.654,-1.922 -1.565,-2.264 m -58.407,18.483 v 0.017 c -0.008,0.017 -0.008,0.026 -0.017,0.044 l -0.502,1.117 -2.253,5.024 c -0.528,1.204 -1.94,1.75 -3.144,1.221 -0.216,-0.095 -0.407,-0.216 -0.58,-0.364 -0.087,-0.069 -0.165,-0.155 -0.242,-0.242 -0.079,-0.087 -0.139,-0.182 -0.208,-0.277 -0.416,-0.65 -0.503,-1.49 -0.174,-2.244 l 2.304,-5.205 0.26,-0.563 0.087,-0.2 0.035,-0.069 c 0.398,-0.901 1.325,-1.412 2.243,-1.412 0.32,0 0.649,0.061 0.961,0.199 0.338,0.148 0.616,0.364 0.841,0.632 0.069,0.07 0.121,0.148 0.173,0.226 0.381,0.606 0.476,1.377 0.216,2.096 m -1.05,-33.518 c 0,1.322 -1.071,2.393 -2.394,2.393 H 92.261 c -3.335,0 -6.621,-0.512 -9.772,-1.522 -1.258,-0.403 -1.951,-1.75 -1.548,-3.009 0.325,-1.015 1.267,-1.663 2.28,-1.663 0.243,0 0.489,0.037 0.731,0.115 2.676,0.858 5.47,1.293 8.309,1.293 h 13.484 v -6.215 c 0,-1.317 1.067,-2.382 2.381,-2.382 1.315,0 2.382,1.065 2.382,2.382 v 8.373 c 0.008,0.077 0.012,0.156 0.012,0.235 M 91.9,87.29 c 0.109,1.317 -0.872,2.472 -2.189,2.58 -4.202,0.345 -8.321,1.688 -11.915,3.886 -1.126,0.689 -2.599,0.334 -3.29,-0.793 -0.688,-1.128 -0.334,-2.602 0.793,-3.29 4.229,-2.587 9.077,-4.168 14.02,-4.573 0.068,-0.005 0.134,-0.007 0.199,-0.007 1.234,0 2.28,0.947 2.382,2.197 M 37.753,84.991 c 0.078,0 0.153,0.004 0.228,0.01 h 8.43 c 1.315,0 2.381,1.068 2.381,2.383 0,1.315 -1.066,2.382 -2.381,2.382 h -6.265 v 11.104 c 0,1.321 -1.071,2.394 -2.393,2.394 -1.322,0 -2.394,-1.073 -2.394,-2.394 V 87.384 c 0,-1.321 1.072,-2.393 2.394,-2.393 m 3.725,62.276 c 0,-1.321 1.07,-2.393 2.392,-2.393 h 2.55 c 1.323,0 2.394,1.072 2.394,2.393 0,1.322 -1.071,2.393 -2.394,2.393 h -2.55 c -1.322,0 -2.392,-1.071 -2.392,-2.393 m 97.599,2.368 h -8.812 c -1.316,0 -2.38,-1.066 -2.38,-2.382 v -10.419 c 0,-1.315 1.064,-2.381 2.38,-2.381 1.316,0 2.381,1.066 2.381,2.381 v 8.038 h 6.431 c 1.315,0 2.38,1.066 2.38,2.381 0,1.316 -1.065,2.382 -2.38,2.382 m 16.547,-62.292 c 0,1.315 -1.067,2.381 -2.383,2.381 h -9.61 c -1.315,0 -2.381,-1.066 -2.381,-2.381 0,-1.316 1.066,-2.383 2.381,-2.383 h 9.61 c 1.316,0 2.383,1.067 2.383,2.383 M 101.17,225.417 h -3.636 c -0.06,0 -0.12,-0.004 -0.18,-0.008 -0.014,-0.002 -0.029,0 -0.044,-0.003 -0.305,-0.028 -0.593,-0.117 -0.854,-0.249 -0.017,-0.007 -0.032,-0.013 -0.046,-0.022 -0.023,-0.013 -0.047,-0.026 -0.069,-0.039 -0.453,-0.258 -0.829,-0.663 -1.051,-1.186 l -2.636,-6.192 c -0.019,-0.046 -0.037,-0.09 -0.054,-0.136 -0.016,-0.047 -0.034,-0.096 -0.046,-0.143 -0.352,-1.189 0.217,-2.485 1.36,-2.994 0.319,-0.141 0.651,-0.208 0.981,-0.207 0.817,0.002 1.521,0.433 1.952,1.166 0.001,0.002 0.001,0.004 0.003,0.006 0.029,0.052 0.056,0.102 0.085,0.155 0.027,0.056 0.054,0.113 0.079,0.171 l 2.127,4.919 h 2.029 c 1.317,0 2.383,1.064 2.383,2.381 0,1.314 -1.066,2.381 -2.383,2.381 m 58.114,-2.412 c 0,1.316 -1.065,2.382 -2.382,2.382 h -6.536 c -1.315,0 -2.383,-1.066 -2.383,-2.382 0,-1.316 1.068,-2.381 2.383,-2.381 h 6.536 c 1.317,0 2.382,1.065 2.382,2.381 M 61.922,163.156 c 0,1.315 -1.066,2.382 -2.382,2.382 h -8.313 c -1.317,0 -2.382,-1.067 -2.382,-2.382 0,-1.316 1.065,-2.381 2.382,-2.381 h 8.313 c 1.316,0 2.382,1.065 2.382,2.381 M 46.084,225.41 h -8.335 l -0.001,0.001 c -0.988,0 -1.834,-0.599 -2.195,-1.454 -0.027,-0.066 -0.052,-0.133 -0.072,-0.202 -0.003,-0.006 -0.005,-0.011 -0.006,-0.018 -0.073,-0.223 -0.109,-0.461 -0.109,-0.708 v -12.484 c 0,-1.314 1.065,-2.381 2.382,-2.381 1.315,0 2.382,1.067 2.382,2.381 v 10.103 h 5.954 c 1.314,0 2.38,1.065 2.38,2.381 0,1.315 -1.066,2.381 -2.38,2.381 m 87.038,-117.765 v 6.364 c 0,1.317 -1.064,2.382 -2.381,2.382 -1.315,0 -2.381,-1.065 -2.381,-2.382 v -6.364 c 0,-1.316 1.066,-2.382 2.381,-2.382 1.317,0 2.381,1.066 2.381,2.382 m -0.372,100.21 c 0.701,3.027 2.238,5.795 4.449,8.006 0.935,0.934 0.935,2.45 0,3.384 -0.935,0.935 -2.45,0.935 -3.384,0 -2.844,-2.845 -4.827,-6.411 -5.728,-10.311 -0.297,-1.288 0.505,-2.573 1.792,-2.871 0.183,-0.041 0.362,-0.061 0.541,-0.061 1.089,0 2.073,0.748 2.33,1.853"
                       style="fill:url(#linearGradient342);stroke:none"
                       id="path344" />
                  </g>
                </g>
              </g>
            </g>
          </g>
        </g>
      </g>
    </g>
  </g>
</svg>
