<?xml version="1.0" encoding="UTF-8" standalone="no"?>
<svg
   xmlns:dc="http://purl.org/dc/elements/1.1/"
   xmlns:cc="http://creativecommons.org/ns#"
   xmlns:rdf="http://www.w3.org/1999/02/22-rdf-syntax-ns#"
   xmlns:svg="http://www.w3.org/2000/svg"
   xmlns="http://www.w3.org/2000/svg"
   xmlns:sodipodi="http://sodipodi.sourceforge.net/DTD/sodipodi-0.dtd"
   xmlns:inkscape="http://www.inkscape.org/namespaces/inkscape"
   version="1.1"
   id="svg470"
   xml:space="preserve"
   width="254.25266"
   height="514.01984"
   viewBox="0 0 254.25265 514.01983"
   sodipodi:docname="univlisboa_logo.svg"
   inkscape:version="1.0.2 (e86c8708, 2021-01-15)"><metadata
     id="metadata476"><rdf:RDF><cc:Work
         rdf:about=""><dc:format>image/svg+xml</dc:format><dc:type
           rdf:resource="http://purl.org/dc/dcmitype/StillImage" /><dc:title></dc:title></cc:Work></rdf:RDF></metadata><defs
     id="defs474"><clipPath
       clipPathUnits="userSpaceOnUse"
       id="clipPath490"><path
         d="M 0,595.276 H 595.276 V 0 H 0 Z"
         id="path488" /></clipPath></defs><sodipodi:namedview
     pagecolor="#ffffff"
     bordercolor="#666666"
     borderopacity="1"
     objecttolerance="10"
     gridtolerance="10"
     guidetolerance="10"
     inkscape:pageopacity="0"
     inkscape:pageshadow="2"
     inkscape:window-width="1071"
     inkscape:window-height="791"
     id="namedview472"
     showgrid="false"
     inkscape:zoom="0.926041"
     inkscape:cx="123.34681"
     inkscape:cy="179.79952"
     inkscape:window-x="317"
     inkscape:window-y="53"
     inkscape:window-maximized="0"
     inkscape:current-layer="g478"
     inkscape:document-rotation="0"
     fit-margin-top="0"
     fit-margin-left="0"
     fit-margin-right="0"
     fit-margin-bottom="0" /><g
     id="g478"
     inkscape:groupmode="layer"
     inkscape:label="2017_FCT_V_cor"
     transform="matrix(1.3333333,0,0,-1.3333333,-273.50387,749.4287)"><path
       d="m 294.99041,215.67344 h -2.176 v 7.375 h 2.176 c 1.244,0 1.837,-0.7918 1.837,-1.8039 v -3.789 c 0,-1.0469 -0.593,-1.7821 -1.837,-1.7821 z m 1.837,-0.9328 c 1.3,0.4528 2.007,1.5551 2.007,3.2231 v 3.3347 c 0,2.1743 -1.33,3.475 -3.759,3.475 h -4.296 v -19.7828 h 2.035 v 8.959 h 1.639 c 1.187,0 1.949,-0.4812 2.12,-2.0351 l 0.536,-6.9239 h 2.035 l -0.649,6.9801 c -0.17,1.5547 -0.763,2.3727 -1.668,2.7699 z m -1.667,-38.014 h 2.035 v 19.7808 h -2.035 z m 8.538,14.2441 v 2.2047 c 0,0.9871 0.733,1.7211 1.977,1.7211 1.213,0 2.003,-0.7621 2.003,-1.861 v -3.5898 h 1.979 v 3.5898 c 0,2.2583 -1.555,3.6422 -3.982,3.6422 -2.43,0 -3.984,-1.3 -3.984,-3.5023 v -2.2047 c 0,-5.1441 6.017,-5.1441 6.017,-8.8773 v -2.0047 c 0,-1.0473 -0.82,-1.7543 -2.033,-1.7543 -1.244,0 -2.092,0.734 -2.092,1.8672 v 3.5898 h -1.978 v -3.5898 c 0,-2.2641 1.611,-3.645 4.042,-3.645 2.428,0 4.096,1.2969 4.096,3.5879 v 2.0059 c 0,5.0902 -6.045,5.1473 -6.045,8.8203 z m 1.412,28.266 v 2.2047 c 0,0.984 0.734,1.7211 1.977,1.7211 1.214,0 2.004,-0.7641 2.004,-1.8641 v -3.589 h 1.978 v 3.589 c 0,2.2602 -1.553,3.645 -3.982,3.645 -2.429,0 -3.985,-1.3008 -3.985,-3.502 v -2.2047 c 0,-5.1461 6.018,-5.1461 6.018,-8.8773 v -2.0078 c 0,-1.045 -0.819,-1.752 -2.033,-1.752 -1.243,0 -2.09,0.7348 -2.09,1.866 v 3.5891 h -1.979 v -3.5891 c 0,-2.2621 1.611,-3.6429 4.041,-3.6429 2.428,0 4.096,1.2968 4.096,3.5859 v 2.0078 c 0,5.0883 -6.045,5.1441 -6.045,8.8203 z m -33.862,-10.291 -2.685,15.8277 h -2.063 l 3.702,-19.9238 h 2.007 l 3.73,19.9238 h -1.977 z m 15.15,-12.4383 h -2.008 v -19.7808 h 6.953 v 1.7211 h -4.945 z m -19.221,-19.7808 h 7.038 v 1.7211 h -5.003 v 7.3789 h 4.155 v 1.7238 h -4.155 v 7.2351 h 5.003 v 1.7219 h -7.038 z m 19.532,46.3218 v 1.725 h -7.038 v -19.7828 h 7.038 v 1.7211 h -5.003 v 7.3789 h 4.155 v 1.7258 h -4.155 v 7.232 z m 66.645,-14.4699 c 0,-1.1308 -0.734,-1.8668 -1.922,-1.8668 h -2.147 v 16.3367 h 2.147 c 1.188,0 1.922,-0.7629 1.922,-1.8609 z m -1.922,16.1949 h -4.182 v -19.7828 h 4.182 c 2.432,0 3.957,1.3258 3.957,3.5879 v 12.609 c 0,2.2582 -1.525,3.5859 -3.957,3.5859 z m 8.592,-19.7828 h 7.039 v 1.7211 h -5.004 v 7.3789 h 4.155 v 1.7258 h -4.155 v 7.232 h 5.004 v 1.725 h -7.039 z m -39.682,-24.7332 c 0,-1.1597 -0.734,-1.8097 -1.894,-1.8097 h -2.261 v 7.3789 h 2.261 c 1.16,0 1.894,-0.6782 1.894,-1.7809 z m -4.155,14.5281 h 1.98 c 1.129,0 1.837,-0.6511 1.837,-1.75 v -3.7328 c 0,-1.1011 -0.708,-1.7523 -1.837,-1.7523 h -1.98 z m 4.07,-7.998 c 1.103,0.4242 1.781,1.3012 1.781,2.6289 v 3.675 c 0,2.2582 -1.498,3.416 -3.844,3.416 h -4.041 v -19.7808 h 4.295 c 2.431,0 3.901,1.2109 3.901,3.475 v 3.7871 c 0,1.441 -0.791,2.375 -2.092,2.7988 z m -115.1295,62.623 v -1.707 h 190.6895 v 1.707 z m 127.5375,-69.2089 c 0,-1.1039 -0.82,-1.8672 -2.035,-1.8672 -1.244,0 -2.035,0.7633 -2.035,1.8672 v 12.8339 c 0,1.0989 0.791,1.861 2.035,1.861 1.215,0 2.035,-0.7621 2.035,-1.861 z m -2.035,16.4761 c -2.43,0 -4.07,-1.3839 -4.07,-3.6422 v -12.8339 c 0,-2.2641 1.64,-3.645 4.07,-3.645 2.431,0 4.042,1.3809 4.042,3.645 v 12.8339 c 0,2.2583 -1.611,3.6422 -4.042,3.6422 z m 10.74,-12.83 1.498,8.991 1.527,-8.991 z m 0.537,12.8007 -3.731,-19.9218 h 2.007 l 0.905,5.3968 h 3.589 l 0.906,-5.3968 h 2.062 l -3.703,19.9218 z m -4.663,15.4633 1.498,8.9899 1.526,-8.9899 z m 4.212,-7.1211 h 2.062 l -3.703,19.9239 h -2.034 l -3.732,-19.9239 h 2.008 l 0.905,5.3961 h 3.588 z m -16.987,18.0578 h 2.148 c 1.186,0 1.922,-0.7629 1.922,-1.8609 v -12.609 c 0,-1.1308 -0.736,-1.8668 -1.922,-1.8668 h -2.148 z m 6.105,-14.4699 v 12.609 c 0,2.2582 -1.527,3.5859 -3.957,3.5859 h -4.183 v -19.7828 h 4.183 c 2.43,0 3.957,1.3258 3.957,3.5879 z m -15.009,16.1949 v -19.7828 h 2.035 v 19.7828 z m -54.859,-19.7828 h 2.035 v 19.7828 h -2.035 z m 28.513,99.6779 v 10.197 c 0,4.75 -2.859,7.615 -8.094,7.615 -5.24,0 -8.105,-2.865 -8.105,-7.615 v -6.844 c 0,-11.805 11.317,-12.783 11.317,-21.443 v -6.078 c 0,-1.746 -1.187,-3.004 -3.212,-3.004 -2.027,0 -3.213,1.258 -3.213,3.004 v 10.199 h -4.892 v -10.199 c 0,-4.75 2.865,-7.614 8.105,-7.614 5.235,0 8.094,2.864 8.094,7.614 v 6.078 c 0,11.525 -11.307,13.131 -11.307,21.443 v 6.844 c 0,1.746 1.186,3.004 3.213,3.004 2.025,0 3.212,-1.258 3.212,-3.004 v -10.197 z m 66.86,-13.76 h -4.75 l 2.375,19.836 z m -11.527,-17.672 h 4.681 l 1.607,13.271 h 5.728 l 1.606,-13.271 h 4.891 l -6.775,49.244 h -4.891 z m -35.628,7.334 c 0,-1.746 -0.978,-2.934 -3.003,-2.934 h -3.494 v 17.952 h 3.494 c 2.025,0 3.003,-1.188 3.003,-2.934 z m -6.497,37.228 h 3.144 c 2.026,0 3.004,-1.255 3.004,-3.003 v -11.873 c 0,-1.747 -0.978,-2.934 -3.004,-2.934 h -3.144 z m 11.038,-14.876 v 11.873 c 0,4.75 -2.655,7.336 -7.894,7.336 h -8.034 v -48.895 h 8.384 c 5.24,0 7.894,2.654 7.894,7.334 v 12.084 c 0,2.584 -1.328,4.33 -3.913,5.168 2.376,0.908 3.563,2.656 3.563,5.1 z m -48.832,-29.686 v 48.895 h -4.89 v -48.895 z m -4.126,-92.924 c 0,-1.1309 -0.735,-1.8648 -1.921,-1.8648 h -2.149 v 16.3378 h 2.149 c 1.186,0 1.921,-0.764 1.921,-1.8628 z m -1.921,16.1949 h -4.18309 v -19.7808 h 4.18309 c 2.43,0 3.957,1.3261 3.957,3.5859 v 12.6102 c 0,2.257 -1.527,3.5847 -3.957,3.5847 z m 74.581,118.3581 v -34.365 c 0,-1.746 -1.189,-3.004 -3.215,-3.004 -2.026,0 -3.214,1.258 -3.214,3.004 v 34.365 c 0,1.746 1.188,3.004 3.214,3.004 2.026,0 3.215,-1.258 3.215,-3.004 z m -11.319,0 v -34.365 c 0,-4.75 2.865,-7.614 8.104,-7.614 5.24,0 8.104,2.864 8.104,7.614 v 34.365 c 0,4.75 -2.864,7.615 -8.104,7.615 -5.239,0 -8.104,-2.865 -8.104,-7.615 z m -65.9755,-109.8749 v 19.7828 h -1.83679 v -9.1558 c 0,-1.9789 0.0274,-3.5332 0.11329,-5.4571 l -4.4101,14.6129 h -2.20389 v -19.7828 h 1.86399 v 9.1578 c 0,2.0352 -0.0273,3.561 -0.1125,5.5121 l 4.43871,-14.6699 z m -15.14929,3.475 c 0,-1.1312 -0.82031,-1.866 -2.06321,-1.866 -1.21609,0 -2.0352,0.7348 -2.0352,1.866 v 16.3078 h -2.007 v -16.3078 c 0,-2.2621 1.6113,-3.6429 4.0422,-3.6429 2.43041,0 4.0691,1.3808 4.0691,3.6429 v 16.3078 h -2.00589 z m -1.44801,113.6659 v -48.895 h 13.5535 v 4.4 h -8.6641 v 44.495 z m 60.8118,30.972 c 35.712,0 64.662,26.889 64.662,66.696 v 142.272 h -30.534 v -157.54 c 0,-27.281 -15.279,-49.395 -34.128,-49.395 -18.847,0 -34.129,22.114 -34.129,49.395 v 157.54 h -30.5336 v -142.272 c 0,-39.807 28.9516,-66.696 64.6626,-66.696"
       style="fill:#231f20;fill-opacity:1;fill-rule:nonzero;stroke:none;stroke-width:0.0999997"
       id="path836" /></g></svg>
